# xmcd CD database file
#
# Track frame offsets:
#	150
#	33710
#	78527
#	113152
#	144132
#	175092
#	211260
#	234160
#	255217
#	282415
#
# Disc length: 4103 seconds
#
# Revision: 1
# Processed by: cddbd v1.5.1PL2 Copyright (c) Steve Scherf et al.
# Submitted via: CDex 1.50
#
DISCID=7d10050a
DTITLE=Giovanni Falzone - Big Fracture
DYEAR=1900
DGENRE=Jazz
TTITLE0=For Frank [take #1]
TTITLE1=Anomaly Suite
TTITLE2=Fragment
TTITLE3=Big Fracture
TTITLE4=Cheese
TTITLE5=Prow
TTITLE6=Pallez
TTITLE7=Space
TTITLE8=For Frank [take #2 - no intro]
TTITLE9=Requiem For Luca
EXTD=
EXTT0=
EXTT1=
EXTT2=
EXTT3=
EXTT4=
EXTT5=
EXTT6=
EXTT7=
EXTT8=
EXTT9=
PLAYORDER=
